<svg xmlns="http://www.w3.org/2000/svg" width="800" height="600"><style/><rect width="800" height="600" x="0" y="0" fill="#000" class="boundary"/><rect width="224.166" height="562.639" x="287.917" y="18.68" fill="none" stroke="#fff" stroke-width=".3" class="pcb-boundary"/><path fill="none" stroke="rgba(255, 255, 255, 0.5)" stroke-width="1.868" d="M 287.9171476830704 579.0947369708024 L 512.0828523169295 579.0947369708024 L 512.0828523169295 18.680475386154967 L 287.9171476830704 18.680475386154967 Z" class="pcb-board"/><rect width="5.604" height="24.285" x="364.506" y="427.8" fill="#C83434" class="pcb-pad"/><rect width="5.604" height="24.285" x="373.849" y="427.8" fill="#C83434" class="pcb-pad"/><rect width="5.604" height="24.285" x="383.186" y="427.8" fill="#C83434" class="pcb-pad"/><rect width="5.604" height="24.285" x="392.529" y="427.8" fill="#C83434" class="pcb-pad"/><rect width="5.604" height="24.285" x="401.867" y="427.8" fill="#C83434" class="pcb-pad"/><rect width="5.604" height="24.285" x="411.209" y="427.8" fill="#C83434" class="pcb-pad"/><rect width="5.604" height="24.285" x="420.543" y="427.8" fill="#C83434" class="pcb-pad"/><rect width="5.604" height="24.285" x="429.89" y="427.8" fill="#C83434" class="pcb-pad"/><rect width="5.604" height="24.285" x="334.618" y="427.8" fill="#C83434" class="pcb-pad"/><rect width="5.604" height="24.285" x="340.222" y="427.8" fill="#C83434" class="pcb-pad"/><rect width="5.604" height="24.285" x="349.564" y="427.8" fill="#C83434" class="pcb-pad"/><rect width="5.604" height="24.285" x="355.168" y="427.8" fill="#C83434" class="pcb-pad"/><rect width="5.604" height="24.285" x="439.228" y="427.8" fill="#C83434" class="pcb-pad"/><rect width="5.604" height="24.285" x="444.836" y="427.8" fill="#C83434" class="pcb-pad"/><rect width="5.604" height="24.285" x="454.174" y="427.8" fill="#C83434" class="pcb-pad"/><rect width="5.604" height="24.285" x="459.778" y="427.8" fill="#C83434" class="pcb-pad"/><rect width="14.944" height="14.944" x="377.591" y="67.314" fill="#C83434" class="pcb-pad"/><rect width="14.944" height="14.944" x="407.465" y="67.186" fill="#C83434" class="pcb-pad"/><rect width="18.68" height="18.68" x="374.781" y="158.784" fill="#C83434" class="pcb-pad"/><rect width="18.68" height="18.68" x="406.538" y="158.784" fill="#C83434" class="pcb-pad"/><path fill="none" stroke="#C83434" stroke-linecap="round" stroke-linejoin="round" stroke-width="2.802" d="M 339.28976262827445 340.91740552500204 L 352.36654372999186 353.9941866267195" class="pcb-trace" data-layer="top" shape-rendering="crispEdges"/><path fill="none" stroke="#C83434" stroke-linecap="round" stroke-linejoin="round" stroke-width="2.802" d="M 352.36654372999186 353.9941866267195 L 352.36654372999186 439.9422496839542" class="pcb-trace" data-layer="top" shape-rendering="crispEdges"/><path fill="none" stroke="#C83434" stroke-linecap="round" stroke-linejoin="round" stroke-width="2.802" d="M 414.93675867496563 74.65784619452091 L 414.93675867496563 167.18263307212828" class="pcb-trace" data-layer="top" shape-rendering="crispEdges"/><path fill="none" stroke="#C83434" stroke-linecap="round" stroke-linejoin="round" stroke-width="2.802" d="M 414.93675867496563 167.18263307212828 L 415.8784040782316 168.12427847539428" class="pcb-trace" data-layer="top" shape-rendering="crispEdges"/><path fill="none" stroke="#C83434" stroke-linecap="round" stroke-linejoin="round" stroke-width="2.802" d="M 384.1215959217683 168.12427847539428 L 384.1215959217683 180.26916538200027" class="pcb-trace" data-layer="top" shape-rendering="crispEdges"/><path fill="none" stroke="#C83434" stroke-linecap="round" stroke-linejoin="round" stroke-width="2.802" d="M 384.1215959217683 180.26916538200027 L 460.71023737172334 256.8578068319553" class="pcb-trace" data-layer="top" shape-rendering="crispEdges"/><path fill="none" stroke="#f2eda1" stroke-linecap="round" stroke-linejoin="round" stroke-width="1.868" d="M 316.51737394192196 511.8583774504273 L 316.51737394192196 477.05829195176204" class="pcb-silkscreen pcb-silkscreen-top" data-pcb-component-id="null" data-pcb-silkscreen-path-id="pcb_silkscreen_path_0"/><path fill="none" stroke="#f2eda1" stroke-linecap="round" stroke-linejoin="round" stroke-width="1.868" d="M 483.52058478406445 581.319524613845 L 316.51737394192196 581.319524613845 L 316.51737394192196 553.648087855097" class="pcb-silkscreen pcb-silkscreen-top" data-pcb-component-id="null" data-pcb-silkscreen-path-id="pcb_silkscreen_path_1"/><path fill="none" stroke="#f2eda1" stroke-linecap="round" stroke-linejoin="round" stroke-width="1.868" d="M 483.52058478406445 511.86502022747527 L 483.52058478406445 477.051649174712" class="pcb-silkscreen pcb-silkscreen-top" data-pcb-component-id="null" data-pcb-silkscreen-path-id="pcb_silkscreen_path_2"/><path fill="none" stroke="#f2eda1" stroke-linecap="round" stroke-linejoin="round" stroke-width="1.868" d="M 483.52058478406445 581.319524613845 L 483.52058478406445 553.6414450780532" class="pcb-silkscreen pcb-silkscreen-top" data-pcb-component-id="null" data-pcb-silkscreen-path-id="pcb_silkscreen_path_3"/><path fill="none" stroke="#f2eda1" stroke-linecap="round" stroke-linejoin="round" stroke-width="1.868" d="M 404.11852176934 80.7658796895285 L 403.9334729801626 80.7658796895285 L 397.76707794395355 74.60090810554325" class="pcb-silkscreen pcb-silkscreen-top" data-pcb-component-id="null" data-pcb-silkscreen-path-id="pcb_silkscreen_path_4"/><path fill="none" stroke="#f2eda1" stroke-linecap="round" stroke-linejoin="round" stroke-width="1.868" d="M 404.11852176934 68.06251755468242 L 404.11852176934 68.24946428015679 L 397.76707794395355 74.60090810554325" class="pcb-silkscreen pcb-silkscreen-top" data-pcb-component-id="null" data-pcb-silkscreen-path-id="pcb_silkscreen_path_5"/><path fill="none" stroke="#f2eda1" stroke-linecap="round" stroke-linejoin="round" stroke-width="1.868" d="M 404.11852176934 68.06251755468242 L 404.11852176934 80.7658796895285" class="pcb-silkscreen pcb-silkscreen-top" data-pcb-component-id="null" data-pcb-silkscreen-path-id="pcb_silkscreen_path_6"/><path fill="none" stroke="#f2eda1" stroke-linecap="round" stroke-linejoin="round" stroke-width="1.868" d="M 404.49288970436197 60.58986786052711 L 425.9765796435334 60.58986786052711" class="pcb-silkscreen pcb-silkscreen-top" data-pcb-component-id="null" data-pcb-silkscreen-path-id="pcb_silkscreen_path_7"/><path fill="none" stroke="#f2eda1" stroke-linecap="round" stroke-linejoin="round" stroke-width="1.868" d="M 404.49288970436197 88.6128973187079 L 425.9765796435334 88.6128973187079" class="pcb-silkscreen pcb-silkscreen-top" data-pcb-component-id="null" data-pcb-silkscreen-path-id="pcb_silkscreen_path_8"/><path fill="none" stroke="#f2eda1" stroke-linecap="round" stroke-linejoin="round" stroke-width="1.868" d="M 425.9765796435334 60.59081682867773 L 425.9765796435334 88.23758041553319" class="pcb-silkscreen pcb-silkscreen-top" data-pcb-component-id="null" data-pcb-silkscreen-path-id="pcb_silkscreen_path_9"/><path fill="none" stroke="#f2eda1" stroke-linecap="round" stroke-linejoin="round" stroke-width="1.868" d="M 397.39413346115754 88.65560088544112 L 377.7775383563534 88.65560088544112" class="pcb-silkscreen pcb-silkscreen-top" data-pcb-component-id="null" data-pcb-silkscreen-path-id="pcb_silkscreen_path_10"/><path fill="none" stroke="#f2eda1" stroke-linecap="round" stroke-linejoin="round" stroke-width="1.868" d="M 372.17435591694397 81.1815277390599 L 372.17435591694397 83.05004602565307 L 377.7775383563534 88.65560088544112" class="pcb-silkscreen pcb-silkscreen-top" data-pcb-component-id="null" data-pcb-silkscreen-path-id="pcb_silkscreen_path_11"/><path fill="none" stroke="#f2eda1" stroke-linecap="round" stroke-linejoin="round" stroke-width="1.868" d="M 372.17435591694397 68.10664457364157 L 372.17435591694397 81.1815277390599" class="pcb-silkscreen pcb-silkscreen-top" data-pcb-component-id="null" data-pcb-silkscreen-path-id="pcb_silkscreen_path_12"/><path fill="none" stroke="#f2eda1" stroke-linecap="round" stroke-linejoin="round" stroke-width="1.868" d="M 372.17435591694397 68.10664457364157 L 372.17435591694397 66.23575386667184 L 377.7775383563534 60.63257142726036" class="pcb-silkscreen pcb-silkscreen-top" data-pcb-component-id="null" data-pcb-silkscreen-path-id="pcb_silkscreen_path_13"/><path fill="none" stroke="#f2eda1" stroke-linecap="round" stroke-linejoin="round" stroke-width="1.868" d="M 397.39413346115754 60.63257142726036 L 377.7775383563534 60.63257142726036" class="pcb-silkscreen pcb-silkscreen-top" data-pcb-component-id="null" data-pcb-silkscreen-path-id="pcb_silkscreen_path_14"/><path fill="none" stroke="#f2eda1" stroke-linecap="round" stroke-linejoin="round" stroke-width="1.868" d="M 404.11852176934 74.60090810554325 L 397.76707794395355 74.60090810554325" class="pcb-silkscreen pcb-silkscreen-top" data-pcb-component-id="null" data-pcb-silkscreen-path-id="pcb_silkscreen_path_15"/><path fill="none" stroke="#f2eda1" stroke-linecap="round" stroke-linejoin="round" stroke-width="1.868" d="M 357.5146959416595 354.9289202540914 L 442.4853040583382 354.9289202540914" class="pcb-silkscreen pcb-silkscreen-top" data-pcb-component-id="null" data-pcb-silkscreen-path-id="pcb_silkscreen_path_16"/><path fill="none" stroke="#f2eda1" stroke-linecap="round" stroke-linejoin="round" stroke-width="1.868" d="M 343.9586859243851 278.33912435075234 L 343.9586859243851 317.5680442036829" class="pcb-silkscreen pcb-silkscreen-top" data-pcb-component-id="null" data-pcb-silkscreen-path-id="pcb_silkscreen_path_17"/><path fill="none" stroke="#f2eda1" stroke-linecap="round" stroke-linejoin="round" stroke-width="1.868" d="M 457.90935787813055 279.6842867028357 L 457.90935787813055 319.4360880062029" class="pcb-silkscreen pcb-silkscreen-top" data-pcb-component-id="null" data-pcb-silkscreen-path-id="pcb_silkscreen_path_18"/><path fill="none" stroke="#f2eda1" stroke-linecap="round" stroke-linejoin="round" stroke-width="1.868" d="M 362.63912394959146 242.84629210286596 L 442.4853040583382 242.84629210286596" class="pcb-silkscreen pcb-silkscreen-top" data-pcb-component-id="null" data-pcb-silkscreen-path-id="pcb_silkscreen_path_19"/><path fill="none" stroke="#f2eda1" stroke-linecap="round" stroke-linejoin="round" stroke-width="1.868" d="M 415.8784040782316 151.31185062785485 L 371.04526315145984 151.31185062785485 L 371.04526315145984 184.93670632293373 L 415.8784040782316 184.93670632293373" class="pcb-silkscreen pcb-silkscreen-top" data-pcb-component-id="pcb_component_3" data-pcb-silkscreen-path-id="pcb_silkscreen_path_20"/><text x="0" y="0" fill="#f2eda1" stroke="none" class="pcb-silkscreen-text pcb-silkscreen-top" data-pcb-silkscreen-text-id="pcb_component_3" dominant-baseline="central" dx="0" dy="0" font-family="Arial, sans-serif" font-size="7.472" text-anchor="middle" transform="matrix(1,0,0,1,399.99999999999994,141.9716129347774)">R1</text><g><path fill="#C83434" d="M469.58688544324053,531.909480412709 v11.208262815122481 a11.208262815122485,11.208262815122485 0 0 0 22.41652563024497,0 v-11.208262815122481 a11.208262815122485,11.208262815122485 0 0 0 -22.41652563024497,0 z" class="pcb-hole-outer"/><path fill="#FF26E2" d="M473.32297304828137,531.909480412709 v11.208262815122488 a7.472175210081655,7.472175210081655 0 0 0 14.94435042016331,0 v-11.208262815122488 a7.472175210081655,7.472175210081655 0 0 0 -14.94435042016331,0 z" class="pcb-hole-inner"/></g><g><path fill="#C83434" d="M469.58688544324053,451.96033725973217 v14.94435042016331 a11.208262815122485,11.208262815122485 0 0 0 22.41652563024497,0 v-14.94435042016331 a11.208262815122485,11.208262815122485 0 0 0 -22.41652563024497,0 z" class="pcb-hole-outer"/><path fill="#FF26E2" d="M473.32297304828137,451.96033725973217 v14.944350420163317 a7.472175210081655,7.472175210081655 0 0 0 14.94435042016331,0 v-14.944350420163317 a7.472175210081655,7.472175210081655 0 0 0 -14.94435042016331,0 z" class="pcb-hole-inner"/></g><g><path fill="#C83434" d="M307.99658892651433,451.96033725973217 v14.94435042016331 a11.208262815122485,11.208262815122485 0 0 0 22.41652563024497,0 v-14.94435042016331 a11.208262815122485,11.208262815122485 0 0 0 -22.41652563024497,0 z" class="pcb-hole-outer"/><path fill="#FF26E2" d="M311.73267653155517,451.96033725973217 v14.944350420163317 a7.472175210081655,7.472175210081655 0 0 0 14.94435042016331,0 v-14.944350420163317 a7.472175210081655,7.472175210081655 0 0 0 -14.94435042016331,0 z" class="pcb-hole-inner"/></g><g><path fill="#C83434" d="M307.99658892651433,531.909480412709 v11.208262815122481 a11.208262815122485,11.208262815122485 0 0 0 22.41652563024497,0 v-11.208262815122481 a11.208262815122485,11.208262815122485 0 0 0 -22.41652563024497,0 z" class="pcb-hole-outer"/><path fill="#FF26E2" d="M311.73267653155517,531.909480412709 v11.208262815122488 a7.472175210081655,7.472175210081655 0 0 0 14.94435042016331,0 v-11.208262815122488 a7.472175210081655,7.472175210081655 0 0 0 -14.94435042016331,0 z" class="pcb-hole-inner"/></g><g><circle cx="460.71" cy="340.917" r="18.68" fill="#C83434" class="pcb-hole-outer"/><circle cx="460.71" cy="340.917" r="12.143" fill="#FF26E2" class="pcb-hole-inner"/></g><g><circle cx="460.71" cy="256.858" r="18.68" fill="#C83434" class="pcb-hole-outer"/><circle cx="460.71" cy="256.858" r="12.143" fill="#FF26E2" class="pcb-hole-inner"/></g><g><circle cx="339.29" cy="256.858" r="18.68" fill="#C83434" class="pcb-hole-outer"/><circle cx="339.29" cy="256.858" r="12.143" fill="#FF26E2" class="pcb-hole-inner"/></g><g><circle cx="339.29" cy="340.917" r="18.68" fill="#C83434" class="pcb-hole-outer"/><circle cx="339.29" cy="340.917" r="12.143" fill="#FF26E2" class="pcb-hole-inner"/></g><circle cx="345.828" cy="463.638" r="7.005" fill="#FF26E2" class="pcb-hole"/><circle cx="454.172" cy="463.638" r="7.005" fill="#FF26E2" class="pcb-hole"/></svg>